<svg width="16" height="16" viewBox="0 0 16 16" fill="none" xmlns="http://www.w3.org/2000/svg">
<path d="M5.74786 14.3597C5.80542 14.4221 5.83603 14.5047 5.83303 14.5895C5.83004 14.6744 5.79368 14.7546 5.73186 14.8128L5.03682 15.4627C4.97476 15.5204 4.89234 15.551 4.80768 15.548C4.72302 15.5449 4.64304 15.5084 4.5853 15.4464L0.537618 11.0842C0.480097 11.0217 0.449546 10.9391 0.452602 10.8542C0.455657 10.7694 0.492074 10.6892 0.553938 10.631L1.24994 9.98207C1.28065 9.95348 1.31669 9.93122 1.35601 9.91657C1.39533 9.90191 1.43715 9.89515 1.47908 9.89667C1.52101 9.89818 1.56223 9.90795 1.60039 9.9254C1.63855 9.94286 1.67289 9.96766 1.70146 9.99839L5.74786 14.3597ZM10.9127 6.15167C10.9702 6.21412 11.0007 6.29674 10.9977 6.38159C10.9946 6.46643 10.9582 6.54664 10.8963 6.60479L6.52194 10.6912C6.45988 10.7489 6.37746 10.7795 6.2928 10.7765C6.20814 10.7734 6.12816 10.7369 6.07042 10.6749L5.02626 9.54815C4.96874 9.4857 4.93819 9.40308 4.94124 9.31824C4.9443 9.23339 4.98072 9.15318 5.04258 9.09503L9.41602 5.00863C9.4467 4.98005 9.48272 4.9578 9.52201 4.94315C9.5613 4.9285 9.6031 4.92174 9.645 4.92326C9.68691 4.92477 9.7281 4.93453 9.76623 4.95198C9.80436 4.96943 9.83868 4.99423 9.86722 5.02495L10.9127 6.15167ZM7.23618 12.9686C7.35586 13.0976 7.3485 13.3014 7.21986 13.4218L6.52386 14.0714C6.49315 14.0999 6.4571 14.1222 6.41779 14.1369C6.37847 14.1515 6.33665 14.1583 6.29472 14.1568C6.25279 14.1552 6.21156 14.1455 6.17341 14.128C6.13525 14.1106 6.10091 14.0858 6.07234 14.055L2.0269 9.69279C1.96934 9.63039 1.93873 9.54779 1.94173 9.46294C1.94472 9.3781 1.98108 9.29786 2.0429 9.23967L2.73762 8.59039C2.79968 8.53273 2.88209 8.50206 2.96676 8.50512C3.05142 8.50818 3.1314 8.54472 3.18914 8.60671L7.23618 12.9686ZM13.9763 6.30815C14.0338 6.37064 14.0643 6.45329 14.0612 6.53813C14.0581 6.62298 14.0216 6.70317 13.9597 6.76127L13.264 7.41087C13.2019 7.46859 13.1195 7.49933 13.0348 7.49633C12.9501 7.49333 12.87 7.45684 12.8122 7.39487L8.7661 3.03359C8.70846 2.97122 8.6778 2.88861 8.6808 2.80374C8.68379 2.71887 8.7202 2.63862 8.7821 2.58047L9.4797 1.92927C9.51038 1.90069 9.5464 1.87844 9.58569 1.86379C9.62498 1.84914 9.66678 1.84238 9.70868 1.8439C9.75059 1.84541 9.79178 1.85517 9.82991 1.87262C9.86804 1.89007 9.90236 1.91487 9.9309 1.94559L13.9763 6.30815ZM15.4624 4.91935C15.5199 4.98189 15.5504 5.06455 15.5473 5.14942C15.5443 5.23429 15.5079 5.31455 15.4461 5.37279L14.7517 6.02207C14.721 6.05067 14.685 6.07295 14.6458 6.08762C14.6065 6.1023 14.5647 6.10909 14.5228 6.1076C14.4809 6.10612 14.4397 6.09639 14.4015 6.07896C14.3634 6.06154 14.3291 6.03677 14.3005 6.00607L10.2551 1.64287C10.1976 1.58038 10.167 1.49774 10.17 1.41287C10.173 1.328 10.2093 1.24772 10.2711 1.18943L10.9661 0.538872C10.9967 0.510242 11.0327 0.487939 11.0719 0.473243C11.1112 0.458547 11.153 0.451747 11.1949 0.453234C11.2368 0.45472 11.2779 0.464464 11.3161 0.481906C11.3542 0.499347 11.3885 0.524144 11.417 0.554872L15.4624 4.91935Z" fill="#0083FF"/>
</svg>
