<svg width="16" height="12" viewBox="0 0 16 12" fill="none" xmlns="http://www.w3.org/2000/svg">
<path d="M7.20002 2.79999C7.20002 3.43651 6.94717 4.04696 6.49708 4.49705C6.04699 4.94714 5.43654 5.19999 4.80002 5.19999C4.1635 5.19999 3.55306 4.94714 3.10297 4.49705C2.65288 4.04696 2.40002 3.43651 2.40002 2.79999C2.40002 2.16347 2.65288 1.55302 3.10297 1.10294C3.55306 0.65285 4.1635 0.399994 4.80002 0.399994C5.43654 0.399994 6.04699 0.65285 6.49708 1.10294C6.94717 1.55302 7.20002 2.16347 7.20002 2.79999Z" fill="#0083FF"/>
<path d="M13.6 2.79999C13.6 3.11517 13.538 3.42725 13.4174 3.71843C13.2967 4.00962 13.12 4.27419 12.8971 4.49705C12.6742 4.71991 12.4097 4.89669 12.1185 5.0173C11.8273 5.13792 11.5152 5.19999 11.2 5.19999C10.8849 5.19999 10.5728 5.13792 10.2816 5.0173C9.99043 4.89669 9.72585 4.71991 9.50299 4.49705C9.28013 4.27419 9.10335 4.00962 8.98274 3.71843C8.86213 3.42725 8.80005 3.11517 8.80005 2.79999C8.80005 2.16347 9.0529 1.55302 9.50299 1.10294C9.95308 0.65285 10.5635 0.399994 11.2 0.399994C11.8366 0.399994 12.447 0.65285 12.8971 1.10294C13.3472 1.55302 13.6 2.16347 13.6 2.79999Z" fill="#0083FF"/>
<path d="M10.3441 11.6C10.3809 11.3384 10.4001 11.072 10.4001 10.8C10.4019 9.5431 9.97906 8.32242 9.20007 7.33601C9.80814 6.98494 10.4979 6.80011 11.2 6.80011C11.9022 6.80011 12.592 6.98492 13.2 7.33598C13.8081 7.68704 14.3131 8.19198 14.6641 8.80004C15.0152 9.40811 15.2001 10.0979 15.2001 10.8V11.6H10.3441Z" fill="#0083FF"/>
<path d="M4.80005 6.79999C5.86091 6.79999 6.87833 7.22142 7.62848 7.97156C8.37862 8.72171 8.80005 9.73912 8.80005 10.8V11.6H0.800049V10.8C0.800049 9.73912 1.22148 8.72171 1.97162 7.97156C2.72177 7.22142 3.73918 6.79999 4.80005 6.79999Z" fill="#0083FF"/>
</svg>
