<svg width="40" height="40" viewBox="0 0 40 40" fill="none" xmlns="http://www.w3.org/2000/svg">
<path d="M10.043 20.129L12.871 17.301L20.668 25.098L17.836 27.926L10.043 20.129Z" fill="black"/>
<path d="M14.934 25.012L26.973 12.973L29.957 15.957L17.918 28L14.934 25.012Z" fill="black"/>
<path d="M18.119 35.8801L17.649 39.8641C18.418 39.9551 19.207 40.0001 19.997 40.0001V36.0001C19.361 36.0001 18.7361 35.9521 18.119 35.8801Z" fill="black"/>
<path d="M14.627 4.94403L13.282 1.16003C11.88 1.65303 10.535 2.31503 9.26904 3.11703L11.433 6.50303C12.429 5.86904 13.499 5.34704 14.627 4.94403Z" fill="black"/>
<path d="M8.64502 8.73199L5.79902 5.91699C4.75502 6.96999 3.81702 8.14599 3.02802 9.41199L6.43802 11.541C7.07201 10.525 7.80502 9.57799 8.64502 8.73199V8.73199Z" fill="black"/>
<path d="M4.90002 14.749L1.10302 13.434C0.618021 14.832 0.281023 16.296 0.124023 17.78L4.10502 18.219C4.23802 17.015 4.51402 15.857 4.90002 14.749Z" fill="black"/>
<path d="M4.10602 21.79L0.124023 22.241C0.280023 23.717 0.617023 25.181 1.11102 26.591L4.90402 25.263C4.51702 24.154 4.24002 22.995 4.10602 21.79V21.79Z" fill="black"/>
<path d="M6.449 28.479L3.039 30.608C3.828 31.874 4.766 33.042 5.819 34.103L8.653 31.277C7.816 30.435 7.084 29.491 6.449 28.479ZM11.44 33.502L9.29 36.896C10.544 37.694 11.893 38.347 13.303 38.853L14.65 35.064C13.515 34.661 12.44 34.137 11.44 33.502V33.502ZM19.997 4.00001V8.25039e-06C19.216 8.25039e-06 18.426 0.0450084 17.649 0.136007L18.115 4.12101C18.733 4.04801 19.359 4.00001 19.997 4.00001H19.997ZM19.997 5.58898e-06V4C19.998 4 19.999 4 20 4C28.837 4 36 11.163 36 20C36 28.837 28.837 36 20 36C19.999 36 19.998 36 19.997 36V40C31.025 40 39.997 31.028 39.997 20C39.997 8.972 31.025 0 19.997 0V5.58898e-06Z" fill="black"/>
</svg>
