<svg width="14" height="12" viewBox="0 0 14 12" fill="none" xmlns="http://www.w3.org/2000/svg">
<path d="M7.8 2.8C7.8 3.43652 7.54714 4.04697 7.09706 4.49706C6.64697 4.94714 6.03652 5.2 5.4 5.2C4.76348 5.2 4.15303 4.94714 3.70294 4.49706C3.25286 4.04697 3 3.43652 3 2.8C3 2.16348 3.25286 1.55303 3.70294 1.10294C4.15303 0.652856 4.76348 0.4 5.4 0.4C6.03652 0.4 6.64697 0.652856 7.09706 1.10294C7.54714 1.55303 7.8 2.16348 7.8 2.8Z" fill="#606E7B"/>
<path d="M10.2 11.6C10.2 10.327 9.69426 9.10606 8.79409 8.20589C7.89391 7.30571 6.67301 6.8 5.39998 6.8C4.12694 6.8 2.90604 7.30571 2.00586 8.20589C1.10569 9.10606 0.599976 10.327 0.599976 11.6H10.2Z" fill="#606E7B"/>
<path d="M9.39998 4.4C9.1878 4.4 8.98432 4.48429 8.83429 4.63431C8.68426 4.78434 8.59998 4.98783 8.59998 5.2C8.59998 5.41217 8.68426 5.61566 8.83429 5.76568C8.98432 5.91571 9.1878 6 9.39998 6H12.6C12.8121 6 13.0156 5.91571 13.1657 5.76568C13.3157 5.61566 13.4 5.41217 13.4 5.2C13.4 4.98783 13.3157 4.78434 13.1657 4.63431C13.0156 4.48429 12.8121 4.4 12.6 4.4H9.39998Z" fill="#606E7B"/>
</svg>
