<svg width="12" height="12" viewBox="0 0 12 12" fill="none" xmlns="http://www.w3.org/2000/svg">
<path d="M9.7775 11.7055L6.4455 10.063C6.35137 10.0164 6.2471 9.99406 6.14214 9.99798C6.03718 10.0019 5.93487 10.032 5.8445 10.0855L5.8475 10.084L2.63949 11.959C2.58958 11.9871 2.53275 12.0006 2.47552 11.9979C2.4183 11.9952 2.36298 11.9765 2.31591 11.9438C2.26885 11.9112 2.23193 11.8659 2.2094 11.8132C2.18686 11.7606 2.17962 11.7026 2.18849 11.646V11.6475L2.68549 7.87651C2.69864 7.77723 2.68769 7.67623 2.65358 7.58207C2.61946 7.48791 2.56318 7.40334 2.4895 7.33551L2.489 7.33501L0.203495 5.21151C0.117605 5.13113 0.0558322 5.0284 0.0251166 4.91485C-0.00559896 4.8013 -0.00403992 4.68143 0.0296186 4.56871C0.0632771 4.456 0.127701 4.3549 0.215652 4.27679C0.303603 4.19867 0.411595 4.14663 0.527495 4.12651L0.530995 4.12601L3.5245 3.57201C3.735 3.53301 3.907 3.39451 3.992 3.20851L3.9935 3.20451L5.239 0.373012C5.28789 0.26578 5.36561 0.174241 5.46349 0.108609C5.56138 0.0429763 5.67557 0.00583226 5.79334 0.00132078C5.9111 -0.0031907 6.02781 0.0251078 6.13043 0.083059C6.23305 0.14101 6.31754 0.226334 6.3745 0.329512L6.376 0.333012L7.8165 3.06851C7.915 3.25101 8.0955 3.37851 8.307 3.40151H8.31L11.3325 3.74201C11.45 3.75295 11.5621 3.79655 11.6562 3.8679C11.7502 3.93924 11.8224 4.03547 11.8646 4.14571C11.9068 4.25595 11.9173 4.37579 11.8949 4.49168C11.8725 4.60758 11.8182 4.7149 11.738 4.80151L11.7385 4.80101L9.6035 7.08201C9.53416 7.1554 9.48362 7.24449 9.45619 7.34166C9.42876 7.43883 9.42526 7.5412 9.446 7.64001L9.4455 7.63601L10.2055 11.3625C10.218 11.4184 10.2146 11.4768 10.1955 11.5308C10.1764 11.5849 10.1425 11.6324 10.0976 11.6681C10.0527 11.7037 9.99866 11.726 9.9417 11.7324C9.88474 11.7387 9.82713 11.7289 9.7755 11.704L9.7775 11.705V11.7055Z" fill="#8D8D8D"/>
</svg>
