<svg width="25" height="25" viewBox="0 0 25 25" fill="none" xmlns="http://www.w3.org/2000/svg">
<path d="M2.59861 11.13C2.10655 11.1314 1.62495 11.272 1.2095 11.5357C0.79406 11.7994 0.461758 12.1753 0.251041 12.6199C0.0403241 13.0646 -0.0401953 13.5598 0.0187982 14.0483C0.0777917 14.5368 0.273887 14.9986 0.584398 15.3803L7.20376 23.489C7.43977 23.7821 7.7423 24.0146 8.08622 24.1673C8.43014 24.3199 8.80552 24.3883 9.18118 24.3668C9.98463 24.3236 10.71 23.8938 11.1725 23.1872L24.9226 1.04265C24.9248 1.03898 24.9272 1.0353 24.9296 1.03168C25.0586 0.833591 25.0168 0.441023 24.7505 0.194408C24.6773 0.126684 24.5911 0.0746535 24.497 0.0415202C24.403 0.00838696 24.3032 -0.0051475 24.2038 0.00175068C24.1043 0.00864886 24.0073 0.0358336 23.9188 0.0816305C23.8302 0.127427 23.752 0.190867 23.6889 0.268042C23.684 0.274109 23.6789 0.280085 23.6737 0.28597L9.80649 15.9538C9.75373 16.0134 9.68964 16.062 9.61795 16.0966C9.54627 16.1312 9.46841 16.1513 9.38891 16.1556C9.30941 16.1599 9.22985 16.1484 9.15484 16.1216C9.07984 16.0949 9.01089 16.0536 8.952 16L4.34975 11.8119C3.87177 11.3738 3.24703 11.1305 2.59861 11.13Z" fill="#0083FF"/>
</svg>
