<svg width="14" height="14" viewBox="0 0 14 14" fill="none" xmlns="http://www.w3.org/2000/svg">
<path d="M12.4399 3.56C10.5199 0.6 6.59995 -0.28 3.55995 1.56C0.599946 3.4 -0.360054 7.4 1.55995 10.36L1.71995 10.6L1.07995 13L3.47995 12.36L3.71995 12.52C4.75995 13.08 5.87995 13.4 6.99995 13.4C8.19995 13.4 9.39995 13.08 10.4399 12.44C13.3999 10.52 14.2799 6.6 12.4399 3.56ZM10.7599 9.72C10.4399 10.2 10.0399 10.52 9.47995 10.6C9.15995 10.6 8.75995 10.76 7.15995 10.12C5.79995 9.48 4.67995 8.44 3.87995 7.24C3.39995 6.68 3.15995 5.96 3.07995 5.24C3.07995 4.6 3.31995 4.04 3.71995 3.64C3.87995 3.48 4.03995 3.4 4.19995 3.4H4.59995C4.75995 3.4 4.91995 3.4 4.99995 3.72C5.15995 4.12 5.55995 5.08 5.55995 5.16C5.63995 5.24 5.63995 5.4 5.55995 5.48C5.63995 5.64 5.55995 5.8 5.47995 5.88C5.39995 5.96 5.31995 6.12 5.23995 6.2C5.07995 6.28 4.99995 6.44 5.07995 6.6C5.39995 7.08 5.79995 7.56 6.19995 7.96C6.67995 8.36 7.15995 8.68 7.71995 8.92C7.87995 9 8.03995 9 8.11995 8.84C8.19995 8.68 8.59995 8.28 8.75995 8.12C8.91995 7.96 8.99995 7.96 9.15995 8.04L10.4399 8.68C10.5999 8.76 10.7599 8.84 10.8399 8.92C10.9199 9.16 10.9199 9.48 10.7599 9.72Z" fill="#606E7B"/>
</svg>
