<svg id="no_internet" xmlns="http://www.w3.org/2000/svg" width="33" height="33" viewBox="0 0 33 33">
  <g id="Group_672" data-name="Group 672" transform="translate(4.737 8.067)">
    <path id="Path_1334" data-name="Path 1334" d="M25.6,12.941a1.371,1.371,0,0,1-.975-.4,13.262,13.262,0,0,0-18.826,0,1.375,1.375,0,0,1-1.95-1.94,16.014,16.014,0,0,1,22.726,0,1.375,1.375,0,0,1-.975,2.344Z" transform="translate(-3.445 -5.867)" fill="#60c64d"/>
    <path id="Path_1335" data-name="Path 1335" d="M20.994,15.173a1.371,1.371,0,0,1-.975-.4,8.156,8.156,0,0,0-11.594,0,1.376,1.376,0,0,1-1.95-1.941,10.91,10.91,0,0,1,15.493,0,1.374,1.374,0,0,1-.975,2.344Z" transform="translate(-2.458 -4.467)" fill="#60c64d"/>
    <path id="Path_1336" data-name="Path 1336" d="M12.9,19.933a3.3,3.3,0,1,1,3.292-3.3A3.3,3.3,0,0,1,12.9,19.933Z" transform="translate(-1.134 -3.067)" fill="#60c64d"/>
  </g>
  <path id="Path_1337" data-name="Path 1337" d="M16.5,33A16.5,16.5,0,1,1,33,16.5,16.518,16.518,0,0,1,16.5,33Zm0-30.25A13.75,13.75,0,1,0,30.25,16.5,13.766,13.766,0,0,0,16.5,2.75Z" fill="#f44336"/>
  <path id="Path_1338" data-name="Path 1338" d="M4.6,27.358a1.375,1.375,0,0,1-.972-2.347L25.011,3.627a1.375,1.375,0,1,1,1.944,1.944L5.571,26.955A1.37,1.37,0,0,1,4.6,27.358Z" transform="translate(1.209 1.209)" fill="#f44336"/>
</svg>
